<?xml version="1.0" standalone="no"?>
<!DOCTYPE svg PUBLIC "-//W3C//DTD SVG 20010904//EN"
 "http://www.w3.org/TR/2001/REC-SVG-20010904/DTD/svg10.dtd">
<svg version="1.0" xmlns="http://www.w3.org/2000/svg"
 width="840.000000pt" height="859.000000pt" viewBox="0 0 840.000000 859.000000"
 preserveAspectRatio="xMidYMid meet">

<g transform="translate(0.000000,859.000000) scale(0.100000,-0.100000)"
fill="#000000" stroke="none">
<path d="M4055 8553 c-11 -3 -138 -63 -283 -134 -144 -71 -265 -129 -267 -129
-16 0 -393 -194 -413 -213 -28 -26 -56 -77 -70 -128 -6 -24 -7 -184 -1 -465 4
-236 13 -742 18 -1124 6 -382 14 -835 17 -1007 l7 -311 -164 -80 c-90 -44
-321 -157 -514 -252 -728 -358 -941 -463 -1320 -650 -214 -106 -435 -214 -491
-241 -105 -50 -160 -96 -191 -159 -17 -33 -18 -99 -18 -1035 l0 -1000 34 -53
c45 -70 77 -93 196 -140 55 -21 161 -63 235 -91 74 -29 185 -73 245 -96 61
-24 162 -63 225 -88 63 -25 167 -65 230 -90 63 -25 198 -77 300 -117 102 -39
235 -91 295 -115 61 -24 151 -59 200 -78 181 -70 413 -161 530 -207 66 -26
131 -51 145 -55 14 -4 43 -16 65 -26 22 -10 101 -41 175 -70 175 -67 273 -104
450 -174 480 -189 515 -200 588 -174 17 6 138 66 269 133 131 67 342 176 468
241 127 65 298 152 380 195 201 104 461 238 680 350 99 51 331 170 515 265
184 95 412 212 505 260 94 48 238 122 320 165 83 43 231 119 330 170 99 51
192 103 206 117 14 13 37 45 50 71 l24 47 3 861 2 862 -33 63 c-38 75 -94 114
-210 149 -40 12 -211 66 -382 121 -170 56 -373 121 -450 146 -77 25 -185 60
-240 78 -55 18 -201 65 -325 105 -124 39 -270 87 -325 105 -55 19 -242 79
-415 135 -387 124 -611 198 -616 203 -4 4 28 487 46 692 12 135 34 444 50 700
6 94 15 226 20 295 5 69 14 190 20 270 6 80 17 228 25 330 31 396 56 827 50
865 -9 57 -47 117 -95 150 -49 34 -1000 365 -1045 364 -16 -1 -39 -4 -50 -6z
m55 -2253 l0 -1710 -28 0 c-15 0 -93 12 -172 26 -126 22 -155 31 -225 69 -44
24 -89 50 -99 58 -18 13 -20 48 -32 918 -7 497 -16 1138 -20 1424 -5 286 -9
549 -9 585 l0 65 55 28 c166 83 507 246 518 247 9 0 12 -348 12 -1710z m-988
-1853 c20 -24 68 -63 107 -86 39 -23 71 -44 71 -46 0 -2 -50 -32 -110 -66 -61
-34 -121 -75 -135 -90 -34 -41 -191 -336 -204 -384 -27 -100 -5 -162 106 -297
48 -59 111 -135 138 -170 28 -34 80 -97 117 -139 83 -95 108 -105 383 -154
110 -20 215 -40 233 -46 70 -23 343 -66 384 -62 40 5 205 36 438 85 52 10 153
30 224 43 130 24 228 61 292 110 l32 25 44 -24 c30 -16 75 -27 148 -36 58 -7
134 -18 170 -25 36 -7 112 -19 170 -25 125 -15 181 -6 287 44 127 61 202 167
222 316 10 68 8 85 -17 184 l-27 108 -90 108 c-49 59 -106 128 -127 152 l-36
45 -221 23 c-220 24 -272 23 -343 -5 -13 -5 -22 4 -39 37 -37 74 -56 94 -144
155 -120 82 -157 103 -181 103 -22 0 -40 25 -25 34 4 3 133 -35 287 -85 153
-50 425 -138 604 -196 179 -57 363 -117 410 -133 47 -16 148 -49 225 -73 77
-25 286 -92 465 -150 179 -58 351 -113 383 -123 31 -10 56 -22 54 -28 -2 -5
-37 -24 -78 -41 -41 -18 -126 -56 -189 -85 -63 -29 -151 -67 -195 -86 -44 -19
-88 -39 -98 -45 -11 -6 -74 -34 -140 -63 -67 -30 -174 -77 -237 -106 -63 -28
-146 -65 -185 -82 -38 -17 -104 -46 -145 -65 -41 -19 -95 -43 -120 -53 -25
-10 -110 -48 -190 -85 -80 -36 -179 -80 -220 -97 -41 -17 -80 -35 -86 -39 -6
-5 -53 -26 -105 -48 -52 -22 -122 -53 -156 -70 -34 -17 -65 -31 -68 -31 -4 0
-54 -22 -113 -49 -59 -27 -174 -79 -257 -116 -82 -37 -168 -75 -190 -85 -22
-10 -123 -55 -225 -99 -102 -45 -196 -87 -210 -95 l-25 -15 1 -153 c1 -169 13
-1100 17 -1271 1 -60 -1 -111 -5 -113 -8 -5 -131 37 -176 60 -15 7 -67 28
-116 45 -49 17 -103 38 -120 46 -17 8 -78 32 -136 54 -58 21 -127 49 -155 60
-27 11 -102 40 -165 65 -118 45 -173 67 -580 227 -129 50 -282 109 -340 131
-58 21 -120 46 -138 54 -18 9 -79 33 -135 54 -166 63 -327 125 -397 153 -36
15 -128 51 -205 81 -77 30 -205 80 -285 111 -80 31 -198 77 -262 103 l-118 46
0 756 c0 708 1 758 18 773 15 14 267 139 1281 638 184 90 463 228 620 306 157
78 288 142 291 142 3 1 22 -18 42 -42z m1629 -572 c118 -25 150 -46 194 -127
45 -83 42 -93 -37 -160 -52 -45 -56 -46 -198 -73 -80 -15 -181 -35 -225 -46
-44 -10 -131 -27 -193 -39 l-112 -22 -133 26 c-72 14 -145 30 -162 35 -16 5
-96 21 -177 36 l-147 27 -86 105 -85 105 18 30 c29 51 88 81 183 95 l36 5 27
-68 c33 -81 55 -115 110 -169 67 -66 110 -95 192 -126 67 -26 90 -30 179 -30
105 0 145 10 246 62 90 45 205 179 234 272 9 28 18 58 20 65 6 16 28 15 116
-3z"/>
</g>
</svg>
