<?xml version="1.0" standalone="no"?>
<!DOCTYPE svg PUBLIC "-//W3C//DTD SVG 20010904//EN"
 "http://www.w3.org/TR/2001/REC-SVG-20010904/DTD/svg10.dtd">
<svg version="1.0" xmlns="http://www.w3.org/2000/svg"
 width="663.000000pt" height="172.000000pt" viewBox="0 0 663.000000 172.000000"
 preserveAspectRatio="xMidYMid meet">

<g transform="translate(0.000000,172.000000) scale(0.100000,-0.100000)"
fill="#000000" stroke="none">
<path d="M638 1480 c-42 -22 -80 -45 -84 -52 -4 -6 -7 -128 -6 -270 l2 -258
-198 -98 c-108 -55 -216 -110 -239 -123 l-43 -24 0 -182 0 -182 43 -24 c23
-14 67 -34 97 -46 30 -11 135 -52 233 -91 288 -114 292 -115 346 -94 25 9 156
73 291 142 135 70 264 135 287 147 24 11 45 26 48 34 10 26 16 246 8 295 l-8
49 -150 49 c-303 98 -348 113 -360 123 -11 8 -11 31 -4 110 6 55 11 183 12
284 l2 185 -90 32 c-49 18 -94 33 -100 33 -5 0 -45 -18 -87 -39z m92 -360 l0
-300 -27 6 c-61 15 -59 8 -66 211 -4 103 -7 222 -7 264 l0 75 43 21 c23 12 45
22 50 22 4 1 7 -134 7 -299z m-157 -335 c18 -13 18 -14 -2 -25 -20 -10 -61
-78 -61 -101 0 -6 18 -33 40 -59 37 -44 44 -48 118 -63 75 -15 83 -15 163 4
99 23 87 22 170 13 60 -6 69 -4 88 15 31 31 28 83 -6 121 -23 24 -37 30 -77
33 -38 1 -56 8 -80 31 -17 16 -24 27 -16 24 8 -3 102 -34 208 -69 105 -34 192
-66 192 -69 0 -4 -73 -40 -162 -80 -90 -40 -219 -98 -287 -128 l-124 -56 7
-133 7 -133 -53 21 c-29 12 -156 62 -283 111 -126 50 -236 92 -242 95 -14 6
-19 249 -5 269 8 12 360 193 377 193 6 0 18 -6 28 -14z m89 -125 c14 -25 15
-30 3 -30 -8 0 -25 10 -36 21 -17 17 -19 23 -8 30 20 13 22 12 41 -21z m202
24 c17 -7 22 -29 8 -38 -5 -3 -28 -9 -50 -15 l-42 -9 27 33 c30 36 34 38 57
29z"/>
</g>
</svg>
